<svg width="439" height="114" viewBox="0 0 439 114" fill="none" xmlns="http://www.w3.org/2000/svg">
<path d="M102.56 86.7854C106.84 70.4954 117.48 38.8054 122.31 20.6554C124.36 13.0354 125.8 7.68545 126.03 6.81545C126.4 4.56545 124.45 2.80544 122.07 3.05544C119.85 2.94544 117.76 4.32545 117.14 6.34545C116.2 9.96545 92.0398 95.5754 91.0198 99.5354C90.0498 102.675 86.1198 103.585 83.9998 101.075C78.8898 92.4354 65.6598 67.6654 63.7198 64.3554C59.8198 57.5554 60.8498 48.5954 66.4698 43.0154C70.5298 39.2054 83.1898 29.5554 96.4698 18.7154C101.14 14.9554 105.35 11.5954 108.99 8.65544C110.63 7.71544 111.19 4.71543 109.27 3.64543C107.17 2.47543 104.22 3.15544 102.41 4.47544C98.9498 7.22544 45.1998 51.0454 41.7498 53.5854C34.4198 58.6854 24.3198 51.7054 26.3198 43.1254C27.4498 38.3454 33.3098 17.2154 35.9298 7.20543C37.5698 2.46543 30.1998 1.72544 28.5798 5.10544C27.2798 9.27544 2.6998 101.355 1.5798 105.285C1.1498 107.255 2.4998 109.815 4.7398 109.995C6.9498 110.335 8.87979 108.415 9.27979 106.315C9.88979 104.065 11.7998 96.9554 12.3998 94.7054C15.5298 81.9654 23.4298 76.8854 33.3698 68.8454C40.7698 61.5754 52.6798 62.1954 58.3398 71.2554C62.8198 79.2354 73.9898 99.8454 75.9198 103.305C81.1898 111.955 87.2398 109.925 97.6598 110.185C115.18 110.185 153.23 110.185 156.11 110.185C157.17 110.245 158.81 109.425 159.6 108.045C160.93 105.855 159.88 103.045 157.33 102.835C154.33 102.835 134.93 102.815 123.39 102.835C119.49 102.755 117.11 103.025 113.59 102.675C106.05 101.775 100.88 94.2154 102.56 86.8754L102.58 86.7754L102.56 86.7854Z" fill="black" stroke="black" stroke-width="3" stroke-miterlimit="10"/>
<path d="M196.61 5.02542C189.94 29.0654 175.83 82.0454 169.25 106.245C168.73 109.505 172.27 111.025 175.04 109.795C175.82 109.445 176.59 108.555 176.83 107.805C177.86 103.665 203.31 10.2854 204.06 6.50543C204.26 2.67543 198.33 1.84542 196.66 4.94542L196.61 5.02542Z" fill="black" stroke="black" stroke-width="3" stroke-miterlimit="10"/>
<path d="M435.45 15.7654C422.67 0.97541 394.25 -2.75457 377.44 6.81543C375.59 7.84543 373.71 8.93541 371.66 9.67541C365.89 11.8154 359.56 11.8354 353.75 9.79541C352.1 9.23541 350.49 8.43541 348.99 7.64541C342.2 4.06541 334.44 1.66543 326.22 1.51543C312.38 1.18543 300.7 6.17541 293.27 14.0754C292.51 14.8854 291.66 15.6154 290.66 16.0954C286.85 17.9154 283.54 15.9254 280.69 12.8154C279.49 11.5154 278.14 10.3554 276.67 9.37543C270.07 5.01543 260.28 2.87543 250.7 3.01543C247.71 3.03543 228.86 2.99543 221.27 3.01543C219.42 2.85543 217.4 4.31542 216.88 5.99542C216.12 8.80542 201.23 64.1954 194.03 91.0054C191.92 98.8654 190.46 104.265 190.22 105.175C189.97 106.235 190.19 107.605 191.07 108.725C192.9 110.925 196.29 110.105 197.37 107.805C197.83 106.935 197.86 106.235 198.18 105.235C199.68 99.8754 202.41 89.5454 203.94 84.0154C205 80.3954 204.9 79.8054 205.95 77.3254C207.32 74.2154 209.98 71.8154 213.18 70.7454C214.15 70.4254 215.16 70.2754 216.18 70.2054C222.12 69.7654 230.79 70.2754 237.58 70.0354C256.52 69.6754 276.77 63.7654 284.69 47.1854C285.41 45.4654 286.65 43.4454 288.74 43.4254C290.53 43.3454 291.76 44.6254 292.79 45.7354C297.45 51.1254 310.99 57.0854 321.41 61.0654C327.96 63.7154 335.22 67.8654 337.81 71.4754C344.43 79.9754 340.31 92.3354 331.71 98.1954C314.34 110.085 286.62 104.515 274.81 89.3254C273.16 87.3054 270.96 87.6654 269.12 89.4754C267.56 90.7554 267.74 92.8454 268.96 94.2454C276.14 102.915 286.32 108.885 299.25 110.935C313.67 113.575 331.16 109.635 339.86 100.915C341.71 98.9354 344.54 97.6054 347.21 98.7254C351.19 100.885 354.21 104.135 358.68 106.095C363.37 108.445 368.62 110.125 374.43 110.995C378.08 111.555 382.15 111.795 386.06 111.665C408.36 110.835 424.41 97.2054 423.94 79.5854C423.51 69.1054 417.98 62.9154 406.01 56.8354C397.66 52.6354 384.82 48.9354 377.72 43.7954C373.45 40.7954 371 37.6354 370.19 33.5354C369.95 32.3254 369.9 31.0754 369.98 29.8454C370.74 16.9554 382.44 9.43543 398.1 8.72543C410.05 8.30543 421.04 12.4454 428.74 20.0454C429.82 21.1354 431.1 22.1254 432.52 21.5254C434.65 20.5354 437.14 18.2054 435.54 15.9054L435.44 15.7654H435.45ZM235.77 62.8754C231.25 62.7654 225.85 63.1354 221.31 62.6954C215.12 61.8254 211.54 55.5454 213.2 49.7454C215.49 41.6654 218.57 28.8654 221.2 20.3554C221.51 19.3654 221.88 18.3954 222.4 17.4954C224.62 13.6654 228.59 11.0354 233.05 10.5254C236.92 10.1854 242.72 10.4954 248.26 10.3954C264.66 9.67541 281.02 15.6354 280.11 33.2454C279.98 52.1554 262.28 63.0454 235.94 62.8754H235.77ZM392.39 59.5554C405.44 64.5054 417.16 70.9354 415.66 82.5854C413.24 109.055 368.41 110.375 352.84 92.6054C347.48 87.0554 350.15 80.0054 348.17 73.5754C342.21 51.9254 301.14 52.8454 295.65 34.6054C292.64 23.9354 301.59 13.5154 312.29 10.5054C327.25 5.84543 345.26 10.2554 355.15 21.3154C369.41 37.8154 351.65 43.4854 392.25 59.4954L392.39 59.5554Z" fill="black" stroke="black" stroke-width="3" stroke-miterlimit="10"/>
</svg>
